<svg xmlns="http://www.w3.org/2000/svg" width="130.15" height="55.653" viewBox="0 0 122.01588 52.174624"><defs><clipPath id="b"><path d="M0 0h841.89v595.276H0V0z"/></clipPath><clipPath id="a"><path d="M91.492 335.732h110.316v46.02H91.492v-46.02z"/></clipPath></defs><g clip-path="url(#a)" transform="matrix(1.25 0 0 -1.25 -127.008 474.113)"><path d="M126.144 364.292c0 1.302-.024 1.54-1.574 1.763v.178h4.072v-.178c-1.42-.19-1.457-.544-1.457-1.763v-4.236c.013-2.297-.26-2.806-2.828-3.905l-.094.202c1.74.816 1.88 2.094 1.88 4.223v3.717zM130.622 361.56c-.2-.593-.723-1.825-.723-2.392 0-.722.816-.722 1.35-.805v-.177h-3.244v.177c1.054.284 1.16.52 1.527 1.445l1.336 3.49.71 1.93c.106.308.26.59.13.816.32.13.615.342.864.638l2.603-6.934c.32-.864.522-1.207 1.468-1.385v-.177h-3.48v.177c.415.095.912.226.912.758 0 .498-.45 1.61-.757 2.44h-2.698zm1.313 3.62l-1.113-3.076h2.344l-1.23 3.076zM142.37 359.914l2.143 4.71c.296.65.462 1.243.2 1.42l.026.19h2.6v-.178c-.756-.154-1.217-.438-1.17-1.266l.26-4.308c.13-1.645.13-1.906 1.395-2.12v-.176h-3.89v.177c.91.143 1.49.25 1.43 1.29l-.32 5.172h-.023l-3.017-6.64h-.13l-2.805 6.368h-.023a75.99 75.99 0 0 1-.368-4.957c-.024-.462-.012-.996 1.42-1.233v-.177h-3.3v.177c1.052.178 1.158.687 1.324 1.645l.438 3.326.154 1.61c.07.78-.604 1.053-1.302 1.112v.178h2.556l.01-.13c-.26-.272.06-.983.144-1.172l2.247-5.018zM148.314 358.363c1.42.19 1.432.545 1.465 1.764v4.166c-.034 1.22-.046 1.574-1.466 1.762v.178h6.354l-.142-1.822h-.177c-.084 1.527-1.185 1.54-2.38 1.54h-1.148v-3.373h1.23c.888 0 1.563.07 1.693 1.088h.178v-2.64h-.178c-.154 1.042-.805 1.055-1.693 1.055h-1.23v-1.94c0-.7-.165-1.67 1.775-1.67 1.492 0 2.225.567 2.52 2.06h.177a7.428 7.428 0 0 0-.4-2.344h-6.58v.177zM160.716 364.15h-.19c-.188.96-.496 1.882-1.667 1.882-.76 0-1.386-.52-1.386-1.302 0-2.047 3.727-1.976 3.727-4.367 0-1.526-1.514-2.32-2.874-2.32-.723 0-1.48.213-2.082.604l-.344 2.012h.212c.296-1.138 1.09-2.262 2.39-2.262.876 0 1.564.52 1.564 1.444 0 2.107-3.62 1.917-3.62 4.284 0 1.385 1.37 2.26 2.636 2.26.604 0 1.208-.177 1.73-.46l-.096-1.776zM171.19 363.795h-.177c-.225 1.337-1.007 2.295-2.426 2.295-2.166 0-3.385-1.774-3.385-3.81 0-2.332 1.786-3.952 3.504-3.952 1.548 0 2.164 1.136 2.697 2.414l.167-.07a11.374 11.374 0 0 0-.652-2.12c-.757-.366-1.574-.508-2.415-.508-2.474 0-4.674 1.42-4.674 4.094 0 2.107 1.644 4.237 4.77 4.237.898 0 1.81-.178 2.59-.64v-1.94zM180.848 362.21c0-2.545-1.846-4.165-4.33-4.165-2.497 0-4.333 1.62-4.333 4.175 0 2.522 1.847 4.156 4.32 4.156 3.03 0 4.343-2.06 4.343-4.167m-7.29.295c0-1.834.97-4.177 3.1-4.177 1.952 0 2.818 1.988 2.818 3.68-.036 2.096-1.255 4.083-3.066 4.083-2.036 0-2.852-1.986-2.852-3.585M190.352 362.21c0-2.545-1.846-4.165-4.33-4.165-2.498 0-4.332 1.62-4.332 4.175 0 2.522 1.846 4.156 4.32 4.156 3.03 0 4.342-2.06 4.342-4.167m-7.29.295c0-1.834.97-4.177 3.1-4.177 1.955 0 2.818 1.988 2.818 3.68-.036 2.096-1.255 4.083-3.066 4.083-2.034 0-2.852-1.986-2.852-3.585M193.078 360.127c.035-1.22.047-1.574 1.574-1.763v-.178h-4.084v.178c1.422.19 1.433.544 1.468 1.763v4.166c-.035 1.22-.046 1.574-1.468 1.762v.18h3.763v-.18c-1.205-.188-1.217-.543-1.252-1.762v-4.166zm5.35 6.107v-.18c-1.35-.14-2.25-1.288-3.126-2.2l-1.112-1.183 2.403-2.65c.722-.792 1.574-1.502 2.626-1.797l-.06-.18c-2.06.167-2.39.226-3.503 1.445l-2.414 2.628 1.905 2.07c1.243 1.396 1.006 1.787.213 1.87v.178h3.067zM133.812 355.126v-.177c-1.077-.12-1.148-.783-1.195-2.345l-.072-2.59c-.034-1.53-.685-3.078-3.313-3.078-3.668 0-3.29 2.65-3.29 3.597v2.65c-.036 1.22-.047 1.575-1.467 1.765v.176h4.083v-.177c-1.55-.226-1.574-.463-1.574-1.765v-2.426c0-.226-.38-3.28 2.863-3.28 2.557 0 2.308 2.44 2.308 3.883v1.242c0 1.503-.118 2.19-1.774 2.344v.176h3.432zM142.047 348.937l-.06 4.32c-.01 1.124-.318 1.456-1.655 1.692v.176h3.228v-.177c-.816-.108-.97-.558-1.063-1.327-.166-1.3-.107-4.154-.048-6.733l-.154-.037c-1.894 2.237-4 4.31-6 6.463v-2.18c0-2.933-.07-3.536 1.645-3.88v-.178h-3.536v.18c1.597.164 1.537 1.254 1.537 3.94v1.774c0 1.184-.188 1.646-1.69 1.977v.176h1.952l5.845-6.19zM146.574 349.02c.035-1.22.05-1.575 1.468-1.764v-.178h-3.976v.178c1.42.19 1.432.545 1.467 1.763v4.165c-.035 1.22-.048 1.574-1.467 1.764v.176h3.976v-.177c-1.42-.19-1.433-.545-1.468-1.765v-4.166zM157.19 355.126v-.177c-1.114-.096-1.457-1.03-2.19-2.747l-2.262-5.396h-.164l-2.674 6.4c-.356.867-.628 1.624-1.68 1.742v.176h3.75v-.177c-1.67-.167-1.124-1.114-.817-1.86l1.893-4.568 1.398 3.35c1.016 2.426 1.206 2.816-.592 3.077v.176h3.337zM157.296 347.257c1.42.188 1.433.544 1.468 1.762v4.165c-.035 1.22-.047 1.574-1.468 1.764v.176h6.356l-.142-1.822h-.178c-.083 1.527-1.184 1.538-2.38 1.538h-1.146v-3.372h1.23c.886 0 1.563.07 1.692 1.088h.18v-2.64h-.18c-.153 1.042-.806 1.053-1.69 1.053h-1.232v-1.94c0-.696-.166-1.667 1.775-1.667 1.49 0 2.226.568 2.52 2.06h.18a7.49 7.49 0 0 0-.403-2.345h-6.58v.18zM166.205 352.69c0 1.81-.06 2.08-1.385 2.2v.165l2.888.095c2.982.095 3.22-1.36 3.22-1.93 0-.993-.616-1.56-1.468-1.94l.06-.083c.91-1.597 2.046-3.633 4-4.036l-.037-.175c-1.255.06-2.177.022-2.864.733-.782.816-1.397 1.857-1.645 2.368-.474.98-.9.696-1.728.84v-1.907c0-1.302.022-1.538 1.644-1.763v-.18h-4.152v.18c1.42.188 1.43.544 1.467 1.762v3.67zm1.042-1.564c1.136.01 2.46.533 2.46 1.846 0 1.386-1.218 1.942-2.46 1.93v-3.776zM177.998 353.043h-.19c-.188.96-.497 1.883-1.667 1.883-.757 0-1.383-.52-1.383-1.303 0-2.047 3.726-1.976 3.726-4.368 0-1.525-1.515-2.318-2.875-2.318a3.92 3.92 0 0 0-2.084.604l-.342 2.01h.212c.296-1.135 1.088-2.258 2.39-2.258.876 0 1.56.52 1.56 1.442 0 2.107-3.618 1.918-3.618 4.286 0 1.385 1.37 2.26 2.637 2.26.604 0 1.208-.178 1.73-.462l-.095-1.775zM181.458 349.02c.035-1.22.048-1.575 1.468-1.764v-.178h-3.978v.178c1.422.19 1.433.545 1.47 1.763v4.165c-.037 1.22-.048 1.574-1.47 1.764v.176h3.978v-.177c-1.42-.19-1.433-.545-1.468-1.765v-4.166zM190.74 355.493h.095l.166-2.213-.165-.035c-.414 1.468-1.064 1.526-2.425 1.526h-.712v-5.466c0-1.467.072-1.858 1.658-2.047v-.18H185v.18c1.587.19 1.657.58 1.657 2.047v5.467h-.708c-1.364 0-2.014-.057-2.43-1.525l-.163.035.164 2.213h.096l.12-.106c.295-.273.343-.26.732-.26h5.42c.39 0 .438-.013.735.26l.118.106zM198.814 355.126v-.177c-1.03-.084-1.538-.652-2.036-1.505l-1.396-2.768v-1.34c.024-1.36.047-1.844 1.562-2.08v-.18h-4.166v.18c1.515.236 1.54.72 1.562 2.08v.95l-1.23 2.685c-.45.994-.77 1.835-1.965 1.977v.176h3.267v-.177c-.97-.132-.84-.522-.46-1.35l1.18-2.557 1.03 1.953c.734 1.373.64 1.822-.388 1.953v.176h3.04zM125.892 344.744h72.172v-.24h-72.172v.24zM127.113 342.05h.715l1.935-4.43h-.815l-.446 1.063h-2.08l-.453-1.063h-.793l1.936 4.43zm1.105-2.683l-.76 1.76-.753-1.76h1.513zM130.418 339.488v2.532h.773v-2.502c0-.816.422-1.257 1.113-1.257.685 0 1.106.416 1.106 1.228v2.532h.77v-2.494c0-1.315-.74-1.975-1.89-1.975-1.143 0-1.872.66-1.872 1.938M135.075 338.26l.466.554c.42-.363.843-.57 1.39-.57.476 0 .777.22.777.552v.013c0 .312-.174.483-.992.67-.936.227-1.464.504-1.464 1.314v.013c0 .754.63 1.275 1.503 1.275.64 0 1.15-.195 1.596-.553l-.415-.586c-.397.296-.792.453-1.195.453-.453 0-.716-.232-.716-.522v-.01c0-.34.2-.492 1.042-.693.93-.227 1.415-.56 1.415-1.288v-.014c0-.823-.647-1.312-1.57-1.312-.672 0-1.307.233-1.835.703M140.504 341.303h-1.396v.716h3.57v-.717h-1.395v-3.683h-.78v3.683zM143.622 342.02h1.96c.553 0 .987-.165 1.27-.44.232-.24.363-.567.363-.95v-.012c0-.722-.433-1.157-1.048-1.334l1.188-1.664h-.912l-1.08 1.533h-.97v-1.533h-.77v4.4zm1.903-2.183c.553 0 .905.292.905.737v.013c0 .47-.34.73-.91.73h-1.127v-1.48h1.132zM149.848 342.05h.716l1.936-4.43h-.816l-.447 1.063h-2.08l-.452-1.063h-.792l1.935 4.43zm1.106-2.683l-.76 1.76-.754-1.76h1.514zM153.38 342.02h.774v-3.695h2.312v-.705h-3.086v4.4zM157.44 342.02h.773v-4.4h-.773v4.4zM161.072 342.05h.716l1.935-4.43h-.815l-.447 1.063h-2.08l-.45-1.063h-.793l1.935 4.43zm1.106-2.683l-.76 1.76-.754-1.76h1.514z" fill="#231f20"/><path d="M118.428 359.495c-.59-.34-1.43-.552-2.365-.552-.936 0-1.777.212-2.366.55-.59.34-1.43.553-2.365.553-.935 0-1.78-.212-2.366-.552-.59-.34-1.43-.55-2.367-.55-.935 0-1.777.21-2.365.55-.59.34-1.43.552-2.367.552-.087 0-.174-.004-.26-.007v-2.19c0-.332.01-.65.03-.965.076.003.153.007.23.007.936 0 1.777-.213 2.367-.553.588-.34 1.43-.552 2.364-.552.935 0 1.776.212 2.366.55.587.34 1.43.554 2.366.554.934 0 1.776-.213 2.365-.553.59-.34 1.43-.552 2.366-.552.935 0 1.776.212 2.365.552.59.34 1.43.552 2.364.552.08 0 .156-.004.232-.007.02.314.03.633.03.964v2.19c-.086.002-.17.006-.262.006-.934 0-1.775-.212-2.364-.55M116.063 352.633c-.937 0-1.78.212-2.367.55-.588.34-1.43.554-2.364.554-.935 0-1.778-.214-2.366-.553-.59-.34-1.43-.55-2.367-.55-.935-.002-1.777.21-2.365.55-.525.302-1.248.503-2.058.543a11.608 11.608 0 0 1 1.752-3.547 3.33 3.33 0 0 0 .304-.15c.59-.34 1.43-.553 2.365-.553.935 0 1.776.213 2.366.552.588.34 1.43.552 2.366.552.934 0 1.776-.212 2.365-.553.587-.34 1.43-.553 2.365-.553.936 0 1.777.213 2.366.552.094.055.198.103.304.15a11.59 11.59 0 0 1 1.752 3.547c-.81-.04-1.533-.24-2.056-.543-.59-.34-1.43-.55-2.365-.55M113.696 346.875c-.59.338-1.43.552-2.365.552-.934 0-1.777-.214-2.365-.552a3.916 3.916 0 0 0-1.008-.39c1.356-.908 2.61-1.574 3.374-2.213.765.64 2.018 1.305 3.374 2.212a3.916 3.916 0 0 0-1.008.39M118.428 365.805c-.59-.34-1.43-.553-2.365-.553-.936 0-1.777.213-2.366.553-.59.338-1.43.55-2.365.55-.935 0-1.78-.212-2.366-.55-.59-.34-1.43-.553-2.367-.553-.935 0-1.777.213-2.365.553-.59.338-1.43.55-2.367.55-.087 0-.174-.002-.26-.006v-3.156c.086.003.173.006.26.006.936 0 1.777-.21 2.367-.55.588-.34 1.43-.553 2.364-.553.935 0 1.776.212 2.366.553.587.34 1.43.55 2.366.55.934 0 1.776-.21 2.365-.55.59-.34 1.43-.553 2.366-.553.935 0 1.776.212 2.365.553.59.34 1.43.55 2.364.55.09 0 .176-.003.262-.006v3.155a5.54 5.54 0 0 1-.262.006c-.934 0-1.775-.213-2.364-.55" fill="#176fc1"/><path d="M111.33 372.283a3.188 3.188 0 0 1-3.187-3.188c0-.158.016-.314.038-.466.294.087.56.2.785.33.588.337 1.43.55 2.366.55.935 0 1.777-.213 2.366-.55.227-.132.492-.243.785-.332.023.153.04.308.04.467a3.188 3.188 0 0 1-3.19 3.188m-4.344-.936c-.063-.01-.126-.027-.19-.04a2.32 2.32 0 0 0-.49-.026c-.166.007-.36.046-.47.118-.03-.166.176-.385.35-.503.12-.08.245-.15.378-.195.053-.02.105-.028.156-.047.16-.056.317-.158.44-.268.162-.142.295-.323.42-.482.098.465.284.902.537 1.288-.168.06-.35.126-.548.157-.177.027-.385.03-.584 0m11.627-2.252l-3.5.627a3.71 3.71 0 0 0 .057-.627c0-.213-.022-.42-.057-.626l3.5.625zm-11.068.627l-3.497-.627 3.5-.626a4.047 4.047 0 0 0-.057.625c0 .213.025.423.055.627m8.45.853c.04.053.07.11.11.162.096.14.206.256.323.366.122.112.288.223.418.25-.1.136-.4.148-.606.107a1.605 1.605 0 0 1-.405-.128c-.05-.025-.093-.055-.144-.08a1.4 1.4 0 0 0-.5-.12c-.213-.014-.436.02-.636.046h-.003c.253-.388.438-.823.536-1.292.163.077.334.16.496.278.144.104.294.25.413.41m-6.848 1.675l-2.2 1.23 1.227-2.2c.266.38.594.708.973.97m5.34-.97l1.227 2.2-2.2-1.23c.38-.262.708-.59.973-.97m-2.51 1.596l-.646 6.414-.645-6.414c.21.034.425.058.646.058.22 0 .435-.024.646-.058m-2.882.724c.024-.05.055-.094.08-.144a1.41 1.41 0 0 0 .12-.5c.013-.215-.02-.437-.046-.636v-.004a3.82 3.82 0 0 0 1.29.536 2.79 2.79 0 0 1-.276.495c-.105.145-.25.294-.41.41-.054.04-.11.072-.164.11-.14.1-.254.208-.366.325-.11.122-.223.29-.25.42-.135-.1-.146-.4-.106-.607.028-.143.066-.277.128-.405m4.49-.744c.026.176.03.385 0 .584-.01.064-.03.127-.04.19a2.46 2.46 0 0 0-.03.49c.008.164.045.362.12.472-.166.026-.385-.178-.503-.353a1.534 1.534 0 0 1-.195-.38c-.018-.05-.03-.104-.046-.154a1.423 1.423 0 0 0-.27-.442 3.41 3.41 0 0 0-.483-.415v-.002c.466-.1.902-.286 1.29-.54.06.17.123.352.156.548" fill="#e7b20f"/></g></svg>